<svg width="64" height="68" viewBox="0 0 64 68" fill="none" xmlns="http://www.w3.org/2000/svg">
<rect x="0.5" y="0.5" width="63" height="67" stroke="#5F6E5B"/>
<path d="M29.0834 43.3333C31.6695 43.3333 33.8718 42.4245 35.6902 40.6068C37.5087 38.7891 38.4175 36.5869 38.4167 34C38.416 31.4131 37.5071 29.2108 35.6902 27.3931C33.8733 25.5755 31.6711 24.6666 29.0834 24.6666H28.4709C28.2765 24.6666 28.0917 24.6861 27.9167 24.725C29.0251 26.0083 29.8857 27.4425 30.4986 29.0276C31.1115 30.6128 31.4175 32.2702 31.4167 34C31.416 35.7298 31.1095 37.3876 30.4974 38.9735C29.8853 40.5594 29.0251 41.9932 27.9167 43.275C28.0917 43.3139 28.2765 43.3333 28.4709 43.3333H29.0834ZM29.0834 45.6666C28.4028 45.6666 27.7223 45.5986 27.0417 45.4625C26.3612 45.3264 25.7098 45.1222 25.0876 44.85C24.8737 44.7528 24.6987 44.6069 24.5626 44.4125C24.4265 44.218 24.3584 44.0041 24.3584 43.7708C24.3584 43.5958 24.3973 43.4305 24.4751 43.275C24.5528 43.1194 24.6695 42.9833 24.8251 42.8666C26.1862 41.7972 27.2362 40.4847 27.9751 38.9291C28.714 37.3736 29.0834 35.7305 29.0834 34C29.0834 32.2694 28.7093 30.631 27.9611 29.0848C27.2128 27.5386 26.1578 26.2214 24.7959 25.1333C24.6598 25.0166 24.5528 24.8805 24.4751 24.725C24.3973 24.5694 24.3584 24.4041 24.3584 24.2291C24.3584 23.9958 24.4218 23.7819 24.5486 23.5875C24.6753 23.393 24.8453 23.2472 25.0584 23.15C25.7001 22.8778 26.3612 22.6736 27.0417 22.5375C27.7223 22.4014 28.4028 22.3333 29.0834 22.3333C30.6973 22.3333 32.214 22.6398 33.6334 23.2526C35.0528 23.8655 36.2876 24.6966 37.3376 25.7458C38.3876 26.795 39.219 28.0298 39.8319 29.45C40.4448 30.8702 40.7508 32.3869 40.7501 34C40.7493 35.6131 40.4428 37.1298 39.8307 38.55C39.2186 39.9702 38.3876 41.2049 37.3376 42.2541C36.2876 43.3034 35.0528 44.1348 33.6334 44.7485C32.214 45.3621 30.6973 45.6682 29.0834 45.6666Z" fill="#5F6E5B"/>
</svg>
