<svg width="64" height="68" viewBox="0 0 64 68" fill="none" xmlns="http://www.w3.org/2000/svg">
<rect x="0.5" y="0.5" width="63" height="67" stroke="#5F6E5B"/>
<path d="M20 33.9887C20 33.7178 20.0904 33.4807 20.2825 33.2888C20.4746 33.1082 20.7119 33.0179 20.9605 33.0179H23.2656C23.5254 33.0179 23.7401 33.1082 23.9209 33.3001C24.0904 33.492 24.1808 33.7178 24.1808 33.9887C24.1808 34.2596 24.1017 34.4854 23.9322 34.6773C23.7627 34.8692 23.5367 34.9595 23.2769 34.9595H20.9718C20.7119 34.9595 20.4859 34.8692 20.2938 34.6773C20.2001 34.5889 20.1256 34.4821 20.0751 34.3636C20.0246 34.2451 19.999 34.1175 20 33.9887ZM23.2317 41.8119C23.2317 41.5522 23.3221 41.3264 23.4916 41.1232L25.1526 39.5089C25.3221 39.3283 25.548 39.2493 25.8192 39.2493C26.0904 39.2493 26.3164 39.3396 26.4972 39.5089C26.678 39.6783 26.7684 39.8928 26.7684 40.1524C26.7684 40.4233 26.678 40.6717 26.4972 40.8749L24.8927 42.4779C24.4294 42.8391 23.9661 42.8391 23.5029 42.4779C23.4144 42.3913 23.3447 42.2876 23.298 42.173C23.2514 42.0584 23.2288 41.9355 23.2317 41.8119ZM23.2317 26.1881C23.2317 25.9285 23.3221 25.7027 23.4916 25.4995C23.7175 25.3076 23.9548 25.2173 24.2147 25.2173C24.4633 25.2173 24.6893 25.3076 24.8814 25.4882L26.4972 27.1477C26.678 27.317 26.7684 27.5428 26.7684 27.8137C26.7684 28.0847 26.678 28.3104 26.4972 28.4911C26.226 28.762 26.0904 28.762 25.8192 28.762C25.548 28.762 25.3221 28.6717 25.1526 28.4911L23.5029 26.8768C23.4138 26.786 23.3438 26.6783 23.2972 26.56C23.2507 26.4417 23.2284 26.3152 23.2317 26.1881ZM26.113 33.9887C26.113 32.9389 26.3729 31.9567 26.904 31.0536C27.435 30.1505 28.1469 29.428 29.0622 28.8975C29.9774 28.3669 30.9492 28.1072 32 28.1072C32.791 28.1072 33.548 28.2653 34.2825 28.5814C35.0057 28.8975 35.6384 29.3151 36.1582 29.8457C36.6893 30.3763 37.1074 30.9972 37.4124 31.7197C37.7175 32.4421 37.8757 33.2098 37.8757 34C37.8757 35.0611 37.6158 36.0433 37.0848 36.9464C36.5537 37.8495 35.8418 38.5607 34.9379 39.0912C34.0339 39.6218 33.0509 39.8815 31.9887 39.8815C30.9266 39.8815 29.9435 39.6218 29.0396 39.0912C28.1356 38.5607 27.4237 37.8495 26.8927 36.9464C26.3842 36.032 26.113 35.0499 26.113 33.9887ZM28.0339 33.9887C28.0339 35.095 28.4181 36.032 29.1978 36.8109C29.9661 37.5898 30.904 37.9849 32.0113 37.9849C33.1187 37.9849 34.0565 37.5898 34.8362 36.8109C35.6158 36.032 36.0113 35.095 36.0113 33.9887C36.0113 32.905 35.6158 31.9793 34.8362 31.2004C34.0565 30.4327 33.1187 30.0489 32.0113 30.0489C30.9153 30.0489 29.9774 30.4327 29.2091 31.2004C28.4181 31.9793 28.0339 32.905 28.0339 33.9887ZM31.0396 42.7714C31.0396 42.5005 31.13 42.2747 31.3221 42.0941C31.5141 41.9135 31.7401 41.8231 32 41.8231C32.2712 41.8231 32.5085 41.9135 32.6893 42.0941C32.8701 42.2747 32.9605 42.5005 32.9605 42.7714V45.0179C32.9605 45.2888 32.8701 45.5259 32.678 45.7178C32.4859 45.9097 32.2599 46 32 46C31.7401 46 31.5028 45.9097 31.3221 45.7178C31.2301 45.6262 31.1576 45.517 31.109 45.3967C31.0605 45.2764 31.0369 45.1476 31.0396 45.0179V42.7714ZM31.0396 25.2738V22.9708C31.0396 22.7112 31.13 22.4854 31.3221 22.2935C31.5141 22.1016 31.7401 22 32.0113 22C32.2825 22 32.4972 22.0903 32.6893 22.2822C32.8814 22.4741 32.9718 22.6999 32.9718 22.9595V25.2738C32.9718 25.5334 32.8814 25.7479 32.6893 25.9285C32.4972 26.1091 32.2712 26.1881 32.0113 26.1881C31.7514 26.1881 31.5141 26.0978 31.3333 25.9285C31.1526 25.7592 31.0396 25.5334 31.0396 25.2738ZM37.2768 40.1524C37.2768 39.8928 37.3672 39.6783 37.5367 39.5202C37.7062 39.3396 37.9209 39.2606 38.1695 39.2606C38.4407 39.2606 38.6667 39.3509 38.8475 39.5202L40.4972 41.1345C40.678 41.3264 40.7684 41.5635 40.7684 41.8231C40.7684 42.0828 40.678 42.3086 40.4972 42.4892C40.0452 42.8391 39.5932 42.8391 39.1412 42.4892L37.5367 40.8862C37.3631 40.6816 37.2706 40.4205 37.2768 40.1524ZM37.2768 27.825C37.2768 27.5428 37.3672 27.317 37.5367 27.159L39.1412 25.4995C39.3193 25.3253 39.5587 25.228 39.8079 25.2286C40.0791 25.2286 40.3051 25.3189 40.4859 25.5108C40.678 25.7027 40.7684 25.9285 40.7684 26.1881C40.7684 26.4704 40.678 26.7074 40.4972 26.8881L38.8475 28.5024C38.6441 28.683 38.4181 28.7733 38.1695 28.7733C37.9096 28.7733 37.7062 28.683 37.5367 28.5024C37.3672 28.3217 37.2768 28.096 37.2768 27.825ZM39.8305 33.9887C39.8305 33.7178 39.9209 33.492 40.1017 33.2888C40.2825 33.1082 40.4972 33.0179 40.7458 33.0179H43.0282C43.2881 33.0179 43.5141 33.1195 43.7062 33.3114C43.8983 33.5033 44 33.7291 44 33.9887C44 34.2484 43.8983 34.4741 43.7062 34.666C43.5141 34.858 43.2881 34.9483 43.0282 34.9483H40.7458C40.4859 34.9483 40.2599 34.858 40.0904 34.666C39.9209 34.4741 39.8305 34.2596 39.8305 33.9887Z" fill="#5F6E5B"/>
</svg>
